<svg xmlns="http://www.w3.org/2000/svg" xmlns:xlink="http://www.w3.org/1999/xlink" version="1.1" x="0px" y="0px" viewBox="0 0 100 125" enable-background="new 0 0 100 100" xml:space="preserve"><g display="none"><g display="inline"><path fill="#000000" d="M26.867,13.091c-1.104,0-1.997-0.903-1.992-2.008c0,0,0.959-15.959,2.064-15.954    C28.044-4.867,28.875,11.1,28.875,11.1C28.872,11.87,28.422,13.091,26.867,13.091z"/></g><path display="inline" fill="#000000" d="M33.343-12.208c1.613-1.62,2.612-3.853,2.612-6.314c0-4.938-4.018-8.955-8.955-8.955   c-4.938,0-8.955,4.017-8.955,8.955c0,2.461,0.999,4.694,2.612,6.314c-3.37,0.92-6.45,2.55-9.063,4.725L9.674-9.47l1.438-1.39   c0.794-0.768,0.815-2.034,0.048-2.828s-2.033-0.815-2.828-0.048l-5.752,5.56C1.785-7.409,1.703-6.079,2.531-5.348   C3.537-4.462,4.971-4.925,5.359-5.3l1.438-1.39l1.946,2.013C5.094-0.449,2.879,5.05,2.879,11.061   c0,13.3,10.821,24.121,24.121,24.121c13.301,0,24.121-10.821,24.121-24.121C51.121-0.045,43.575-9.416,33.343-12.208z    M20.045-18.522c0-3.835,3.12-6.955,6.955-6.955s6.955,3.12,6.955,6.955c0,2.404-1.227,4.527-3.087,5.776   c-0.615-0.1-1.238-0.172-1.868-0.225v-2.695h2c1.104,0,2-0.896,2-2s-0.896-2-2-2h-8c-1.104,0-2,0.896-2,2s0.896,2,2,2h2v2.695   c-0.63,0.052-1.253,0.125-1.868,0.225C21.272-13.996,20.045-16.118,20.045-18.522z M27,31.182   c-11.095,0-20.121-9.026-20.121-20.121C6.879-0.034,15.905-9.061,27-9.061s20.121,9.026,20.121,20.122   C47.121,22.156,38.095,31.182,27,31.182z"/></g><g display="none"><path display="inline" fill="#000000" d="M50.936-12.952c-0.821-0.854-1.705-1.287-2.627-1.287c-0.447,0-0.854,0.104-1.207,0.253   c0.088-0.485,0.088-1.027-0.109-1.56c-0.363-0.98-1.286-1.672-2.743-2.056c-1.021-0.271-1.887-0.04-2.521,0.659   c-1.384,1.522-1.248,4.972-1.185,5.882c-0.955,1.094-6.533,7.487-6.765,7.755c-0.221,0.256-0.454,0.836-0.256,1.27   c0.194,0.426,0.684,0.554,1.298,0.227c2.519-1.348,3.276-1.453,3.405-1.486c0.144,0.104,0.285,0.612,0.15,2.437   c-0.051,0.681-0.065,0.886,0.145,1.084c0.073,0.069,0.165,0.114,0.264,0.13c0.026,0.004,0.105,0.01,0.132,0.01   c0.704,0,2.397-1.027,3.093-1.469c0.055-0.034,0.102-0.079,0.14-0.131l4.176-5.847c0.165,0.021,0.332,0.032,0.499,0.032   c2.018,0,3.732-1.548,4.384-3.078C51.684-11.248,51.585-12.277,50.936-12.952z"/><path display="inline" fill="#000000" d="M42.485,4.714c-0.06-0.243-0.282-0.403-0.54-0.377c-0.017,0.002-1.611,0.177-2.682,0.177   c-0.121,0-0.223-0.002-0.308-0.005c0.48-0.728,1.649-2.205,2.702-3.451c0.147-0.175,0.158-0.428,0.024-0.614   c-0.133-0.187-0.377-0.257-0.589-0.174c-0.634,0.249-2.431,0.89-3.206,0.903c-0.079-0.958-0.26-3.08-0.26-3.08   c-0.015-0.178-0.124-0.335-0.286-0.411c-0.161-0.075-0.352-0.059-0.499,0.044c-0.998,0.7-2.68,1.687-3.302,1.702   c-0.348-0.25-1.056-2.035-1.499-3.547c-0.065-0.223-0.263-0.373-0.511-0.358c-0.233,0.015-0.425,0.189-0.463,0.42   c-0.156,0.974-0.657,2.675-1.331,3.091l-0.25,0.155c-7.159,4.47-13.427,7.324-17.424,8.931c-8.805,3.54-8.665,17.306-7.412,21   c1.143,3.367,4.1,5.222,8.327,5.222c4.156,0,9.045-1.864,13.078-4.987c4.686-3.628,8.315-10.888,10.496-20.994   c0.057-0.26,0.092-0.431,0.08-0.431c0,0,0,0-0.001,0c0.317-0.406,3.129-1.681,5.552-2.63C42.416,5.208,42.546,4.958,42.485,4.714z"/></g><g display="none"><path display="inline" d="M51.367-14.667c0.924,2,0.172,8.326-0.952,12.088c-1.03,3.452-2.703,6.896-5.149,9.563   c-2.175,2.373-4.894,4.2-7.909,5.311c-3.064,1.119-6.318,1.57-9.57,1.519c-0.122-1.07-0.212-2.13-0.296-3.205   c3.699-0.257,7.402-1.131,10.574-3.118c3.017-1.889,5.327-4.65,6.836-7.86c0.979-2.08,1.647-4.547,2.062-6.806   c0.444-2.416,0.579-4.493,1.259-7.493h-2.203c0.575,3,0.501,4.211,0.191,6.191c-0.295,1.885-0.751,3.878-1.435,5.661   c-1.306,3.404-3.474,6.545-6.562,8.547c-3.209,2.079-7.092,2.853-10.87,2.724c-0.029-0.501-0.116-2.493-0.119-2.618   c-0.009-0.251-0.028-0.241,0.222-0.262c0.933-0.079,1.862-0.199,2.779-0.393c1.792-0.379,3.543-1.036,5.08-2.044   c3.186-2.092,4.963-5.517,5.824-9.145c0.323-1.361,0.521-2.979,0.658-4.37c0.135-1.36,0.287-2.293,0.802-4.293h-2.204   c0.732,2,0.521,4.165,0.202,6.104C40.283-6.721,39.812-4.787,39-3.099c-0.746,1.549-1.769,3.008-3.115,4.087   c-1.363,1.093-2.984,1.819-4.69,2.168c-1.324,0.271-2.684,0.352-4.03,0.281c-0.016-0.983-0.022-2.429-0.021-3.413   c0,0,2.017-0.102,2.47-0.224c1.779-0.479,3.408-1.433,4.461-2.974c1.063-1.559,1.472-3.462,1.677-5.309   c0.107-0.96,0.153-2.159,0.191-3.124c0.036-0.969,0.161-2.062,0.66-3.062h-2.203c0.766,2,0.608,3.134,0.491,4.594   c-0.118,1.489-0.351,3.106-0.928,4.492c-0.529,1.273-1.435,2.416-2.688,3.021c-1.28,0.616-2.723,0.76-4.122,0.654   c0.007-1.431,0.014-2.857,0.021-4.288c0.007-1.531-0.028-3.145,0.015-4.676c0.039-1.403,0.454-2.796,1.421-3.796h-3.933   c0.597,1,1.038,1.495,1.246,2.352c0.18,0.742,0.188,1.551,0.176,2.311c-0.008,0.484,0,0.989,0.002,1.475   c0.01,1.896,0.019,3.802,0.027,5.698c0.002,0.318,0.004,0.631,0.005,0.951c-1.393,0.074-2.796-0.076-4.052-0.714   c-1.235-0.628-2.081-1.697-2.593-2.97c-0.545-1.358-0.768-3.057-0.884-4.508c-0.116-1.46-0.272-2.593,0.494-4.593h-2.202   c0.475,1,0.619,2.014,0.657,2.939c0.039,0.967,0.081,2.05,0.185,3.012c0.2,1.852,0.592,3.818,1.639,5.392   c1,1.504,2.541,2.498,4.25,3.011c0.425,0.127,2.515,0.516,2.515,0.329S26.137,2.42,26.12,3.46   c-3.635,0.132-7.304-0.873-9.798-3.645c-2.472-2.746-3.399-6.929-3.679-10.52c-0.098-1.252,0.008-1.962,0.468-3.962H10.91   c0.748,2,0.737,4.172,1.024,6.132c0.276,1.882,0.736,3.88,1.482,5.633c0.725,1.703,1.743,3.344,3.089,4.623   c1.341,1.274,2.98,2.237,4.721,2.85c1.197,0.421,2.443,0.704,3.7,0.869c0.304,0.04,0.607,0.082,0.913,0.11   c0.246,0.024,0.23,0.021,0.223,0.268c-0.007,0.203-0.081,1.989-0.121,2.679C22.131,8.577,18.195,7.764,15,5.605   C11.959,3.551,9.855,0.41,8.605-3C7.972-4.729,7.542-6.777,7.268-8.596c-0.294-1.941-0.353-4.07,0.21-6.07H5.279   c0.556,3,0.748,4.183,1.047,6.172C6.613-6.58,7.049-4.567,7.696-2.74c1.198,3.383,3.141,6.573,5.939,8.858   c2.03,1.658,4.41,2.857,6.929,3.564c1.369,0.385,2.773,0.653,4.187,0.808c0.349,0.038,0.696,0.079,1.045,0.106   c-0.029,0.371-0.209,2.54-0.299,3.248c-3.824,0.026-7.621-0.627-11.108-2.235c-3.41-1.571-6.251-4.117-8.285-7.268   C4.44,1.767,3.326-1.355,2.611-4.328c-0.79-3.281-1.274-6.339-0.482-10.339h-2.2c0.46,3,0.716,4.259,0.979,6.28   C1.166-6.414,1.529-4.334,2.075-2.42C3.076,1.086,4.648,4.51,6.97,7.34c2.16,2.637,4.932,4.735,8.038,6.127   c3.226,1.447,6.726,2.172,10.236,2.444c-0.114,0.946-0.511,4.531-0.971,5.126c-0.551,0.713-1.492,0.722-2.324,1.028   c-0.761,0.281-1.522,0.267-2.309,0.267h14.003c-0.772,0-1.522,0.027-2.271-0.248c-0.823-0.305-1.73-0.519-2.304-1.198   c-0.5-0.594-0.91-4.08-1.027-5.053c3.864-0.271,7.729-1.018,11.224-2.735c3.384-1.663,6.267-4.123,8.409-7.225   c1.886-2.728,3.155-6.066,3.983-9.266c0.943-3.63,1.068-7.275,1.913-11.275H51.367C51.798-12.667,51.367-14.667,51.367-14.667   C51.798-12.667,51.367-14.667,51.367-14.667z"/></g><g display="none"><path display="inline" d="M39.08,14.51l-0.114-0.176h7.742l-9.526-14h4.477L27.749-19.921l1.278,0.915l-0.413-2.365l1.742-1.694   l-2.408-0.333l-1.083-2.245l-1.082,2.266l-2.407,0.364l1.741,1.751l-0.413,2.478l0.914-0.938L11.843,0.333h4.461l-9.511,14h7.722   l-0.094,0.153L2.09,27.333H23v7h6v-7h22.41L39.08,14.51z M41.467,9.581c0.657,0,1.189,0.533,1.189,1.19   c0,0.656-0.532,1.19-1.189,1.19s-1.189-0.534-1.189-1.19C40.277,10.113,40.81,9.581,41.467,9.581z M9.51,25.254   c-0.673,0-1.219-0.546-1.219-1.219c0-0.672,0.545-1.219,1.219-1.219s1.219,0.547,1.219,1.219   C10.729,24.708,10.183,25.254,9.51,25.254z M14.676,11.293c-0.641,0-1.161-0.52-1.161-1.161c0-0.642,0.52-1.161,1.161-1.161   c0.642,0,1.161,0.52,1.161,1.161C15.837,10.773,15.318,11.293,14.676,11.293z M22.629-10.854c0.737,0,1.335,0.599,1.335,1.336   s-0.598,1.335-1.335,1.335s-1.335-0.598-1.335-1.335S21.892-10.854,22.629-10.854z M22.112,23.552c-0.9,0-1.63-0.729-1.63-1.63   s0.73-1.631,1.63-1.631c0.901,0,1.631,0.73,1.631,1.631S23.013,23.552,22.112,23.552z M23.645,1.511   c-0.561,0-1.016-0.455-1.016-1.016c0-0.562,0.455-1.016,1.016-1.016c0.561,0,1.016,0.455,1.016,1.016   C24.661,1.056,24.206,1.511,23.645,1.511z M25.166-19.429l0.325-1.951l-1.381-1.388l1.909-0.285l0.848-1.771l0.848,1.771   l1.909,0.285l-1.382,1.388l0.325,1.951l-1.7-0.92L25.166-19.429z M28.375,6.359c-0.576,0-1.044-0.468-1.044-1.044   c0-0.578,0.468-1.045,1.044-1.045c0.578,0,1.046,0.468,1.046,1.045C29.421,5.891,28.953,6.359,28.375,6.359z M29.29-10.882   c-0.697,0-1.263-0.565-1.263-1.262c0-0.698,0.565-1.263,1.263-1.263s1.263,0.565,1.263,1.263   C30.553-11.448,29.987-10.882,29.29-10.882z M33.397,18.114c-0.914,0-1.654-0.741-1.654-1.654c0-0.915,0.74-1.654,1.654-1.654   s1.654,0.74,1.654,1.654C35.052,17.374,34.312,18.114,33.397,18.114z M35.052-2.223c-0.802,0-1.451-0.649-1.451-1.451   c0-0.802,0.649-1.452,1.451-1.452s1.451,0.649,1.451,1.452C36.503-2.872,35.854-2.223,35.052-2.223z M40.277,24.297   c-0.674,0-1.221-0.546-1.221-1.219c0-0.674,0.547-1.219,1.221-1.219c0.673,0,1.218,0.545,1.218,1.219   C41.495,23.75,40.95,24.297,40.277,24.297z"/></g><g display="none"><rect x="23" y="29.333" display="inline" width="6" height="9"/><g display="inline"><path d="M39.269,16.299c-0.239-0.401-0.053-0.966,0.415-0.966h4.5c0.468,0,0.656-0.094,0.42-0.497L35.69-0.134    c-0.237-0.403-0.048-0.532,0.42-0.532h2.33c0.468,0,0.655-0.412,0.417-0.814l-5.69-9.646c-0.238-0.402-0.629-1.082-0.867-1.484    l-3.433-5.802c-0.238-0.402-0.772-0.915-1.187-1.132l-0.666-0.353c-0.414-0.218-1.092-0.219-1.506-0.001l-0.919,0.483    c-0.414,0.217-0.948,0.725-1.187,1.127l-3.353,5.659c-0.238,0.402-0.629,1.061-0.867,1.463l-5.69,9.688    c-0.238,0.402-0.051,0.814,0.417,0.814h2.328c0.468,0,0.657,0.247,0.42,0.65L7.747,14.877c-0.237,0.403-0.048,0.456,0.42,0.456    h4.5c0.468,0,0.654,0.564,0.415,0.966l-9.06,15.241c-0.24,0.401-0.053,0.793,0.415,0.793h20.889c0.468,0,1.233,0,1.701,0h20.89    c0.468,0,0.654-0.392,0.415-0.793L39.269,16.299z"/></g><path display="inline" d="M26.129-29.166c0.125-0.253,0.329-0.252,0.454,0l1.153,2.339c0.125,0.252,0.455,0.493,0.734,0.533   l2.583,0.376c0.278,0.041,0.342,0.235,0.14,0.431l-1.869,1.821c-0.203,0.196-0.328,0.585-0.281,0.863l0.441,2.571   c0.048,0.278-0.117,0.398-0.367,0.267l-2.307-1.214c-0.25-0.131-0.658-0.131-0.908,0l-2.309,1.214   c-0.25,0.131-0.415,0.011-0.367-0.267l0.441-2.571c0.048-0.278-0.079-0.667-0.28-0.863l-1.869-1.821   c-0.202-0.196-0.139-0.391,0.141-0.431l2.582-0.376c0.279-0.041,0.609-0.281,0.734-0.533L26.129-29.166z"/><circle display="inline" fill="#000000" cx="19.134" cy="8.219" r="2.371"/><circle display="inline" fill="#000000" cx="32.085" cy="5.145" r="2.262"/><circle display="inline" fill="#000000" cx="24.789" cy="-7.113" r="2.262"/><circle display="inline" fill="#000000" cx="35.113" cy="17.731" r="1.86"/><circle display="inline" fill="#000000" cx="25.394" cy="22.346" r="2.28"/><circle display="inline" fill="#000000" cx="13.917" cy="23.167" r="1.897"/></g><g display="none"><g display="inline"><g><path d="M27-4.667H12v-16h15V-4.667z M13-5.667h13v-14H13V-5.667z"/></g></g><g display="inline"><g><g><path d="M20.405-11.528c-1.842,0-3.341-1.499-3.341-3.341s1.499-3.341,3.341-3.341s3.341,1.499,3.341,3.341      S22.247-11.528,20.405-11.528z M20.405-17.644c-1.53,0-2.774,1.245-2.774,2.775s1.245,2.774,2.774,2.774      s2.775-1.245,2.775-2.774S21.935-17.644,20.405-17.644z"/></g></g><g><g><path d="M26.866-4.667H13.927l0.008-0.508c0.001-0.064,0.178-6.461,6.47-6.461c1.945,0,3.502,0.581,4.629,1.726      c1.866,1.896,1.843,4.637,1.841,4.752L26.866-4.667z M14.977-5.667h10.868c-0.082-0.796-0.388-2.392-1.529-3.549      c-0.931-0.943-2.247-1.421-3.911-1.421C16.015-10.636,15.147-7.032,14.977-5.667z"/></g></g></g><g display="inline"><g><rect x="30" y="-18.667" width="14" height="2"/></g></g><g display="inline"><g><rect x="30" y="-13.667" width="10" height="2"/></g></g><g display="inline"><g><rect x="12" y="1.333" width="5" height="2"/></g></g><g display="inline"><g><rect x="12" y="7.333" width="5" height="2"/></g></g><g display="inline"><g><rect x="12" y="13.333" width="5" height="2"/></g></g><g display="inline"><g><rect x="20" y="1.333" width="15" height="2"/></g></g><g display="inline"><g><rect x="20" y="7.333" width="20" height="2"/></g></g><g display="inline"><g><rect x="20" y="13.333" width="11" height="2"/></g></g><line display="inline" fill="none" x1="4" y1="-8.667" x2="4" y2="-8.667"/><line display="inline" fill="none" x1="4" y1="-10.667" x2="4" y2="-10.667"/><line display="inline" fill="none" x1="3" y1="-10.667" x2="2" y2="-10.667"/><line display="inline" fill="none" x1="2" y1="-8.667" x2="3" y2="-8.667"/><path display="inline" d="M3-21.667H1v4h3.938l0,0H8v-4H3 M5-20.667h2v2H2l0,0l0,0v-2h1.625H5"/><path display="inline" d="M4.938-7.667H8v-4H1v4H4.938L4.938-7.667z M2-10.667h5v2H2"/><path display="inline" d="M4.938,2.333H8v-4H1v4H4.938L4.938,2.333z M2,1.333v-2h5v2H2L2,1.333L2,1.333z"/><path display="inline" d="M4.938,12.333H8v-4H1v4H4.938L4.938,12.333z M2,11.333v-2h5v2H2L2,11.333L2,11.333z"/><path display="inline" d="M4.938,22.333H8v-4H1v4H4.938L4.938,22.333z M2,21.333v-2h5v2H2L2,21.333L2,21.333z"/><line display="inline" fill="none" stroke="#000000" stroke-miterlimit="10" x1="6.5" y1="-10.667" x2="6.5" y2="-17.667"/><line display="inline" fill="none" stroke="#000000" stroke-miterlimit="10" x1="6.5" y1="-1.667" x2="6.5" y2="-7.667"/><line display="inline" fill="none" stroke="#000000" stroke-miterlimit="10" x1="6.5" y1="8.333" x2="6.5" y2="2.333"/><line display="inline" fill="none" stroke="#000000" stroke-miterlimit="10" x1="6.5" y1="19.333" x2="6.5" y2="11.333"/><polyline display="inline" fill="none" stroke="#000000" stroke-miterlimit="10" points="6.5,-21.667 6.5,-28.167 50.5,-28.167    50.5,29.833 6.5,29.833 6.5,22.333  "/><polyline display="inline" fill="none" stroke="#000000" stroke-miterlimit="10" points="2.5,22.333 2.5,29.833 6,29.833  "/><line display="inline" fill="none" stroke="#000000" stroke-miterlimit="10" x1="2.5" y1="12.333" x2="2.5" y2="18.333"/><line display="inline" fill="none" stroke="#000000" stroke-miterlimit="10" x1="2.5" y1="1.333" x2="2.5" y2="8.333"/><line display="inline" fill="none" stroke="#000000" stroke-miterlimit="10" x1="2.5" y1="-7.667" x2="2.5" y2="-1.667"/><line display="inline" fill="none" stroke="#000000" stroke-miterlimit="10" x1="2.5" y1="-17.667" x2="2.5" y2="-11.667"/><polyline display="inline" fill="none" stroke="#000000" stroke-miterlimit="10" points="6,-28.167 2.5,-28.167 2.5,-21.667  "/><polyline display="inline" fill="none" stroke="#000000" stroke-miterlimit="10" points="4.5,22.333 4.5,29.833 8,29.833  "/><line display="inline" fill="none" stroke="#000000" stroke-miterlimit="10" x1="4.5" y1="12.333" x2="4.5" y2="18.333"/><line display="inline" fill="none" stroke="#000000" stroke-miterlimit="10" x1="4.5" y1="1.333" x2="4.5" y2="8.333"/><line display="inline" fill="none" stroke="#000000" stroke-miterlimit="10" x1="4.5" y1="-7.667" x2="4.5" y2="-1.667"/><line display="inline" fill="none" stroke="#000000" stroke-miterlimit="10" x1="4.5" y1="-17.667" x2="4.5" y2="-11.667"/><polyline display="inline" fill="none" stroke="#000000" stroke-miterlimit="10" points="8,-28.167 4.5,-28.167 4.5,-21.667  "/></g><g display="none"><g display="inline"><g><path d="M28.481,3.398c-0.293,0.196-0.609,0.375-0.882,0.608c-0.292,0.212-0.541,0.47-0.801,0.712     c-0.228,0.269-0.471,0.522-0.65,0.807c-0.207,0.268-0.343,0.563-0.5,0.832c-0.082,0.209-0.178,0.406-0.248,0.6     c1.424-0.208,2.909-0.366,4.44-0.464c3.876-0.247,7.512-0.083,10.604,0.4c-0.393-2.117-3.624-3.797-8.386-4.674     c-0.06,0.008-0.115,0.013-0.178,0.025c-0.215,0.04-0.463,0.058-0.724,0.126c-0.257,0.071-0.551,0.114-0.839,0.224     c-0.294,0.093-0.603,0.198-0.908,0.34C29.094,3.054,28.798,3.237,28.481,3.398z"/><path d="M24.784,7.05c0.002-0.01,0.004-0.02,0.007-0.03c0.052-0.294,0.186-0.59,0.293-0.914c0.149-0.305,0.286-0.643,0.493-0.951     c0.184-0.327,0.431-0.622,0.667-0.933c0.268-0.285,0.529-0.585,0.836-0.838c0.288-0.276,0.621-0.493,0.934-0.728     c0.334-0.199,0.653-0.419,0.991-0.573c0.166-0.089,0.331-0.167,0.496-0.238c-2.394-0.271-5.057-0.362-7.865-0.237     c-0.134,0.046-0.265,0.093-0.402,0.142c-0.151,0.069-0.306,0.139-0.463,0.21c-0.317,0.136-0.619,0.329-0.932,0.513     c-0.3,0.205-0.606,0.411-0.879,0.658c-0.147,0.115-0.283,0.239-0.407,0.375c-0.125,0.134-0.267,0.255-0.379,0.398     c-0.114,0.141-0.228,0.281-0.341,0.42c-0.109,0.141-0.196,0.293-0.296,0.438c-0.2,0.284-0.33,0.596-0.474,0.879     c-0.108,0.299-0.239,0.575-0.295,0.848c-0.079,0.27-0.136,0.518-0.157,0.738c-0.033,0.219-0.064,0.412-0.059,0.586     c-0.009,0.34-0.014,0.534-0.014,0.534c-0.003,0.116-0.096,0.21-0.213,0.215c-0.121,0.004-0.223-0.091-0.228-0.212     c0,0-0.006-0.194-0.019-0.534c-0.015-0.165,0.004-0.383,0.027-0.633c0.009-0.254,0.056-0.529,0.123-0.825     c0.044-0.303,0.166-0.609,0.269-0.943c0.136-0.319,0.263-0.669,0.462-0.994c0.096-0.164,0.185-0.337,0.295-0.5     c0.115-0.159,0.23-0.321,0.347-0.484c0.117-0.165,0.261-0.306,0.391-0.461c0.129-0.157,0.271-0.303,0.423-0.438     c0.285-0.29,0.606-0.537,0.925-0.781c-2.398,0.203-4.667,0.549-6.738,1.005c-0.069,0.029-0.14,0.054-0.212,0.086     c-0.317,0.12-0.614,0.301-0.931,0.462c-0.294,0.195-0.612,0.373-0.887,0.606c-0.294,0.211-0.545,0.469-0.806,0.712     C9.538,4.896,9.294,5.149,9.112,5.435C8.903,5.704,8.763,6,8.608,6.269C8.496,6.556,8.353,6.82,8.292,7.084     c-0.077,0.261-0.149,0.5-0.171,0.715C8.088,8.014,8.047,8.197,8.053,8.368C8.042,8.699,8.036,8.888,8.036,8.888     C8.033,8.986,7.954,9.067,7.854,9.07C7.75,9.074,7.663,8.993,7.659,8.889c0,0-0.005-0.189-0.017-0.521     C7.626,8.208,7.653,7.993,7.673,7.75c0.011-0.248,0.071-0.51,0.135-0.799c0.049-0.293,0.183-0.588,0.288-0.911     C8.244,5.736,8.378,5.4,8.585,5.092C8.767,4.766,9.013,4.471,9.248,4.16c0.228-0.245,0.457-0.497,0.708-0.725     C4.699,4.976,1.296,7.276,1.415,9.641c0.044,0.531,0.256,1.004,0.612,1.427c1.286,1.418,4.51,2.061,8.828,2.229     C12.167,10.61,17.621,8.183,24.784,7.05z"/></g><path d="M41.528,7.93c0.279,0.193,0.54,0.415,0.796,0.627c0.274,0.279,0.556,0.54,0.775,0.841    c0.245,0.279,0.422,0.595,0.607,0.877c0.145,0.308,0.313,0.583,0.4,0.867c0.101,0.279,0.194,0.531,0.235,0.776    c0.052,0.238,0.105,0.447,0.11,0.608c0.031,0.33,0.05,0.518,0.05,0.518c0.009,0.104-0.067,0.196-0.171,0.205    c-0.1,0.009-0.188-0.061-0.203-0.158c0,0-0.03-0.186-0.084-0.514c-0.016-0.17-0.079-0.347-0.139-0.556    c-0.048-0.209-0.152-0.438-0.261-0.688c-0.095-0.254-0.271-0.497-0.417-0.768c-0.19-0.247-0.366-0.523-0.607-0.764    c-0.217-0.26-0.49-0.48-0.752-0.717c-0.29-0.207-0.573-0.432-0.891-0.604c-0.303-0.197-0.64-0.333-0.957-0.488    c-0.334-0.119-0.653-0.262-0.982-0.34c-0.076-0.023-0.147-0.039-0.221-0.059c-2.11-0.189-4.407-0.243-6.811-0.139    c0.347,0.202,0.696,0.406,1.016,0.656c0.169,0.115,0.328,0.242,0.478,0.381c0.147,0.138,0.31,0.26,0.444,0.409    c0.137,0.146,0.271,0.292,0.405,0.435c0.131,0.147,0.241,0.308,0.356,0.458c0.239,0.296,0.41,0.629,0.586,0.927    c0.145,0.319,0.303,0.607,0.387,0.902c0.104,0.285,0.186,0.551,0.228,0.801c0.053,0.246,0.101,0.458,0.106,0.625    c0.032,0.339,0.049,0.532,0.049,0.532c0.012,0.121-0.076,0.228-0.197,0.239c-0.116,0.011-0.22-0.071-0.24-0.185    c0,0-0.027-0.192-0.079-0.529c-0.017-0.174-0.072-0.36-0.135-0.574c-0.049-0.216-0.136-0.454-0.248-0.712    c-0.09-0.264-0.255-0.521-0.401-0.803c-0.179-0.263-0.347-0.556-0.582-0.812c-0.117-0.13-0.222-0.271-0.349-0.397    c-0.13-0.123-0.261-0.247-0.393-0.374c-0.129-0.127-0.284-0.229-0.425-0.345c-0.143-0.119-0.293-0.226-0.452-0.32    c-0.304-0.211-0.634-0.377-0.956-0.542c-0.336-0.142-0.659-0.295-0.992-0.39c-0.164-0.05-0.326-0.101-0.485-0.15    c-0.142-0.031-0.278-0.06-0.415-0.089c-2.803,0.234-5.431,0.663-7.771,1.236c0.171,0.051,0.346,0.107,0.52,0.173    c0.356,0.11,0.7,0.287,1.057,0.442c0.341,0.193,0.698,0.367,1.019,0.604c0.336,0.21,0.634,0.477,0.936,0.725    c0.274,0.279,0.557,0.54,0.78,0.841c0.245,0.279,0.423,0.596,0.612,0.88c0.146,0.309,0.316,0.584,0.406,0.869    c0.1,0.28,0.195,0.533,0.238,0.78c0.052,0.24,0.108,0.451,0.112,0.613c0.033,0.33,0.05,0.518,0.05,0.518    c0.013,0.124-0.079,0.235-0.204,0.247c-0.118,0.012-0.225-0.073-0.244-0.19c0,0-0.029-0.188-0.082-0.514    c-0.016-0.171-0.079-0.346-0.138-0.552c-0.046-0.208-0.149-0.435-0.256-0.684c-0.093-0.253-0.267-0.495-0.413-0.765    c-0.187-0.247-0.361-0.522-0.601-0.761c-0.215-0.26-0.488-0.481-0.749-0.717c-0.287-0.208-0.568-0.432-0.884-0.605    c-0.3-0.197-0.638-0.334-0.954-0.491c-0.333-0.12-0.651-0.263-0.98-0.342c-0.319-0.102-0.639-0.167-0.941-0.222    c-0.302-0.072-0.598-0.078-0.862-0.116c-0.267-0.034-0.514-0.021-0.731-0.033c-0.064-0.004-0.121-0.001-0.181-0.001    c-4.814,1.541-7.873,3.736-7.728,5.987c0.238,3.731,9.043,4.076,19.831,3.385c10.79-0.69,19.479-2.152,19.239-5.883    C50.644,10.652,46.965,8.792,41.528,7.93z"/></g></g><g display="none"><path display="inline" fill="#000000" d="M58.177,28.777c2.247,7.33,1.506,15.1-2.089,21.876c-1.287,2.426-2.89,4.616-4.746,6.537   c10.224,7.078,24.355,6.069,33.464-3.037c10.246-10.25,16.445-33.063,6.199-43.313c-10.247-10.248-33.065-4.048-43.31,6.202   c-1.385,1.384-2.575,2.887-3.585,4.472c1.25-0.105,2.452-0.173,3.555-0.173c3.892,0,6.79,0.707,8.117,1.952   S58.177,28.777,58.177,28.777z M76.466,14.575c-0.846,0.842-2.211,0.842-3.055,0c-0.838-0.843-0.838-2.21,0-3.054   c0.844-0.844,2.209-0.844,3.055,0C77.309,12.365,77.309,13.732,76.466,14.575z M80.928,9.042c-0.585,0.583-1.529,0.583-2.115-0.001   c-0.586-0.582-0.586-1.529,0-2.114s1.53-0.584,2.115,0C81.511,7.511,81.511,8.458,80.928,9.042z M86.8,16.455   c-0.711,0.713-1.869,0.713-2.587-0.002c-0.71-0.712-0.71-1.869,0.004-2.583c0.714-0.713,1.872-0.713,2.583,0   C87.514,14.583,87.514,15.741,86.8,16.455z"/><path display="inline" fill="#000000" d="M54.865,24.388c-1.284-1.074-3.707-1.619-7.2-1.619c-5.364,0-12.745,1.32-20.25,3.621   C14.561,30.331,4.751,35.976,3.558,40.117c0,0-0.417,0.779,1.081,5.072c3.978,11.399,14.021,19.298,26.08,19.298   c2.703,0,5.396-0.405,8.006-1.205c6.968-2.136,12.686-6.858,16.102-13.298c3.416-6.439,4.12-13.823,1.984-20.79   C56.811,29.193,55.715,25.504,54.865,24.388z M27.834,27.755c7.375-2.261,14.603-3.558,19.831-3.558c2.953,0,5.134,0.425,6.175,1.2   l0.006,0.012c0.223,0.445,0.446,0.89,0.646,1.35c-0.468,3.038-9.247,8.794-22.977,13.005c-7.388,2.264-14.628,3.562-19.864,3.562   H11.65c-3.264,0-5.597-0.527-6.457-1.452c-0.093-0.498-0.159-0.992-0.221-1.493C6.045,37.308,14.328,31.896,27.834,27.755z"/><path display="inline" fill="#000000" d="M12.527,40.51c-2.229,0-3.396-0.422-3.674-1.327c-0.975-3.191,12.21-8.154,19.318-10.333   c7.233-2.219,14.174-3.597,18.113-3.597c2.227,0,3.394,0.42,3.673,1.324c0.977,3.195-12.207,8.159-19.315,10.337   C23.406,39.132,16.465,40.51,12.527,40.51z M46.284,26.396c-3.834,0-10.646,1.359-17.778,3.547   C15.915,33.802,9.64,37.85,9.945,38.849c0.044,0.144,0.594,0.519,2.582,0.519c3.833,0,10.646-1.358,17.781-3.546   c12.59-3.858,18.862-7.909,18.557-8.908C48.82,26.771,48.27,26.396,46.284,26.396z"/></g><g display="none"><rect x="33.309" y="16.572" transform="matrix(-0.8491 0.5282 -0.5282 -0.8491 85.9732 17.3448)" display="inline" width="14.401" height="8.759"/><rect x="38.642" y="25.146" transform="matrix(-0.8492 0.528 -0.528 -0.8492 100.3641 30.3967)" display="inline" width="14.401" height="8.763"/><rect x="28.063" y="30.656" transform="matrix(0.528 0.8492 -0.8492 0.528 47.4618 -9.6862)" display="inline" width="8.764" height="14.402"/><rect x="11.846" y="41.807" transform="matrix(0.8492 -0.528 0.528 0.8492 -21.5176 17.0215)" display="inline" width="14.4" height="8.762"/><rect x="43.971" y="33.723" transform="matrix(-0.8492 0.5281 -0.5281 -0.8492 114.7511 43.4396)" display="inline" width="14.406" height="8.762"/><polygon display="inline" points="46.206,46.35 41.578,38.91 29.346,46.514 33.975,53.95  "/><rect x="17.177" y="50.383" transform="matrix(0.8491 -0.5282 0.5282 0.8491 -25.248 21.1393)" display="inline" width="14.401" height="8.76"/><rect x="49.304" y="42.296" transform="matrix(-0.8492 0.5281 -0.5281 -0.8492 129.1409 56.4719)" display="inline" width="14.403" height="8.765"/><rect x="38.728" y="47.808" transform="matrix(0.5282 0.8491 -0.8491 0.5282 67.0478 -10.6516)" display="inline" width="8.762" height="14.4"/><rect x="22.508" y="58.956" transform="matrix(0.8492 -0.5281 0.5281 0.8492 -28.9666 25.2415)" display="inline" width="14.404" height="8.761"/><rect x="54.638" y="50.871" transform="matrix(-0.8492 0.5281 -0.5281 -0.8492 143.5276 69.5192)" display="inline" width="14.4" height="8.764"/><rect x="44.06" y="56.38" transform="matrix(0.5281 0.8492 -0.8492 0.5281 76.8523 -11.1329)" display="inline" width="8.765" height="14.401"/><polygon display="inline" points="38.846,64.388 26.614,71.993 31.244,79.435 43.47,71.832  "/><polygon display="inline" points="63.368,71.352 75.597,63.745 70.972,56.306 58.74,63.906  "/><rect x="49.393" y="64.956" transform="matrix(0.5283 0.8491 -0.8491 0.5283 86.6293 -11.6216)" display="inline" width="8.762" height="14.397"/><rect x="33.172" y="76.107" transform="matrix(0.8492 -0.5281 0.5281 0.8492 -36.4171 33.4616)" display="inline" width="14.405" height="8.762"/><rect x="65.3" y="68.022" transform="matrix(0.8491 -0.5283 0.5283 0.8491 -27.3052 49.2258)" display="inline" width="14.401" height="8.76"/><rect x="54.722" y="73.529" transform="matrix(-0.5283 -0.8491 0.8491 -0.5283 21.7806 173.5624)" display="inline" width="8.762" height="14.403"/><polygon display="inline" points="37.278,89.149 41.903,96.584 54.136,88.984 49.508,81.542  "/><path display="inline" d="M38.98,4.853L27.66,11.89c0.491,1.112,0.767,2.261,0.854,3.407l2.859,4.602l12.231-7.605L38.98,4.853z"/><path display="inline" d="M19.404,33.123c-0.782,1.189-1.816,2.235-3.104,3.034c-1.475,0.918-3.096,1.407-4.719,1.506   c-0.807,1.652-2.061,3.108-3.734,4.149l2.064,3.321l12.231-7.604L19.404,33.123z"/><path display="inline" d="M30.916,21.757l-9.84,6.121c-0.046,1.337-0.356,2.654-0.909,3.871l3.146,5.056l12.229-7.604   L30.916,21.757z"/><path display="inline" d="M28.427,17.754c-0.429,2.466-1.787,4.69-3.984,6.056c-1.147,0.714-2.405,1.113-3.684,1.242   c0.106,0.429,0.191,0.862,0.243,1.296l9.208-5.724L28.427,17.754z"/></g><g display="none"><path display="inline" d="M95.463,56.53c-0.301-4.72-6.719-8.418-17.609-10.146c-0.135-0.022-0.544-0.064-1.06-0.114   c0.001-0.11,0.017-0.229,0.01-0.336c-0.285-4.453-6.141-8.054-16.065-9.88c-0.096-0.018-1.91-0.003-2.622,0.163   c-1.208,0.283-2.531,0.913-2.647,0.951c0.124-0.197,0.059-1.124,0-1.362c-0.076-0.309-1.367-0.436-2.057-0.514   c-4.488-0.507-6.771-0.585-11.761-0.363c-0.098,0.004-1.913,0.718-1.913,0.718c-0.424,0.182-1.518,0.832-1.901,1.059   c0.013-0.148-0.123-0.677-0.18-0.822c-0.158-0.412-1.918-0.525-2.365-0.488c-4.274,0.36-9.562,1.696-13.495,2.982   c-0.058,0.019-1.157,0.385-1.954,1.259c-0.021-0.075-0.051-0.136-0.09-0.206c-0.227-0.405-0.622-0.527-1.066-0.396   C8.106,42.132,3.801,45.96,4.102,50.681c0.306,4.779,6.451,7.495,19.27,7.639c-0.452,0.939-0.669,1.684-0.607,2.647   c0.331,5.169,7.543,7.367,22.697,7.367c0.001,0,0.001,0,0.002,0c4.098,0,8.759,0.041,14.247-0.311   c11.182-0.715,19.388-1.686,25.088-3.185C92.213,62.888,95.701,60.242,95.463,56.53z M60.43,38.05   c0.028-0.005,0.056-0.01,0.094-0.014c8.188,1.528,13.538,4.38,14.228,7.536c-5.214-0.625-11.003-0.756-16.855-0.381   c-2.871,0.183-5.725,0.487-8.504,0.905c0.751-1.542,2.601-5.114,4.816-6.562C57.118,37.634,60.43,38.05,60.43,38.05z    M47.629,44.083c-0.086,0.376-0.308,2.021-0.359,2.391c-10.507,1.957-19.774,5.628-23.276,9.668   c-11.659-0.256-17.683-2.168-17.908-5.685c-0.201-3.15,4.094-6.554,11.409-9.185c-0.089,0.135-1.177,2.606-1.254,4.56   s-0.225,4.501,0.541,4.501c0,0,0.001,0,0.001,0c0.717,0,0.826-0.861,0.975-1.34s0.257-3.368,0.643-4.524s2.159-3.701,2.159-3.701   l5.083-1.806c2.859-0.626,5.853-1.121,8.933-1.477c-0.082,0.091-0.161,0.182-0.237,0.273c-0.074,0.089-0.851,0.848-1.39,1.787   s-1.799,5.309-1.876,6.671s0.238,3.116,1.049,3.116c0,0,0.001,0,0.002,0c0.737,0,1.576-3.824,1.733-4.379   c0.053-0.258,0.223-1.898,1.56-3.826s2.135-2.494,3.24-3.162s3.23-1.058,3.23-1.058c3.677-0.158,7.305-0.111,10.729,0.136   l-0.396,0.291C52.219,37.334,48.622,40.46,47.629,44.083z M84.293,63.021c-5.575,1.466-13.657,2.305-24.709,3.012   c-5.446,0.348-10.064,0.3-14.12,0.3c0,0-0.001,0-0.002,0c-13.501,0-20.47-1.706-20.713-5.5c-0.216-3.345,4.087-5.547,12.12-9.567   c-0.646,0.316,2.919-0.988,3.208-0.987c1.819,0.008,4,1.027,8.335,5.248C50.201,57.515,51.076,60,51.076,60   c0.54,0.729,1.137,2.114,1.137,2.114c0.345-0.087,2.28-3.16-1.361-8.655c-0.775-1.129-4.311-3.677-4.801-3.944l-0.43-0.236   c3.374-0.684,6.935-1.187,10.627-1.5l1.328,0.014c0.412,0.116,2.5,0.542,4.796,3.028s4.454,8.271,5.172,8.204   c0.761-0.074,0.907-3.565,0.526-5.236c-0.136-0.484-0.353-0.934-0.562-1.37c0,0-0.986-1.807-1.371-2.283   c0,0-2.471-2.636-2.563-2.714c3.122-0.039,9.121,0.345,9.121,0.345c0.066,0.017,1.285,0.245,2.216,0.485s3.082,2.255,3.082,2.255   c2.084,2.161,4.871,7.483,4.871,7.483c0.787,0.03,1.671-2.655-0.075-6.298c-0.078-0.164-1.674-2.551-1.795-2.692   c7.593,1.68,12.285,4.509,12.485,7.658C93.645,59.233,90.554,61.375,84.293,63.021z"/></g><g display="none"><path display="inline" d="M93,28.751c0-0.734,0.036-1.844-0.506-2.257c-0.324-0.438-6.758-2.986-7.849-3.327   c-2.173-0.714-10.96-3.127-13.172-3.648c-1.104-0.273-5.544-1.214-6.654-1.447c-0.211-0.042-1.428-2.276-2.077-3.188   c-0.899-1.265-2.168-2.221-3.511-3.233c-2.851-2.148-5.543-4.177-5.058-9.204c0.048-0.491-0.213-0.96-0.654-1.18   c-0.441-0.218-0.973-0.144-1.336,0.19c-0.185,0.17-4.563,4.218-8.269,9.293c-0.969,1.326-1.798,2.594-2.489,3.804   c-1.155-0.129-2.311-0.261-3.467-0.372l-0.107-0.01c-0.859-0.077-1.743,0.239-2.363,0.932L9.621,44.041   C9.254,44.456,8.988,46.295,9,46.333c-0.022,0.072,0,48.803,0,48.803c0,0.051,0,2.197,3.21,2.205   c0.221,0.001,0.458-0.022,0.68-0.075l77.803-17.539c0.671-0.149,1.172-0.448,1.534-0.882c0.7-0.386,0.774-0.656,0.773-1.512V28.751   z M10.806,63.9L89,46.307v12.242L10.84,76.133L10.806,63.9z M51.832,5.12c0.564,4.362,3.515,6.585,5.967,8.433   c1.191,0.898,2.316,1.746,3.003,2.711c1.146,1.609,1.651,3.776,1.318,5.655c-0.285,1.606-1.138,2.906-2.532,3.861   c-1.769,1.21-5.974,2.461-9.95,2.461c-2.426,0-5.681-0.462-7.414-2.661C38.369,20.687,46.588,10.468,51.832,5.12z M38.754,20.355   c0.104,0.01,0.206,0.022,0.31,0.034c-0.542,2.649-0.117,4.879,1.29,6.665c1.84,2.334,5.051,3.568,9.284,3.569c0.001,0,0,0,0.001,0   c4.604,0,9.255-1.483,11.294-2.878c1.397-0.957,2.42-2.214,3.026-3.687c0.972,0.2,1.945,0.387,2.91,0.609   c1.074,0.244,2.155,0.463,3.223,0.729c2.143,0.505,4.275,1.042,6.391,1.629c0.824,0.227,1.645,0.465,2.464,0.704L16.671,42.047   L38.754,20.355z M11.349,47.333h0.06L89,31.584v11.589L10.805,60.714L10.77,47.147C10.969,47.169,11.144,47.333,11.349,47.333z    M10.816,91.254l-0.033-10.443c0.015-0.003,0.07,0,0.085-0.004L89,63.171v10.615L10.816,91.254z"/></g><g><g><path d="M88.313,36.046c1.334-8.788-0.409-16.917-10.142-18.165C75.913,6.521,63.854,2.56,54.482,8.174    c-9.218-8.311-21.542-3.152-28.344,5.432C12.174,15.454,3.471,29.717,8.432,42.701c-3.524,3.561-4.968,8.972-4.578,13.87L4,56.634    v0.133l-0.145,0.041c0.586,5.181,3.773,9.009,8.33,11.61c-0.647,11.847,10.111,20.562,21.556,19.454    c5.848,8.632,16.712,12.241,26.367,6.906c10.049,3.567,21.489-5.675,24.079-14.994c8.713-3.547,16.597-13.819,10.807-23.385    c0.715-1.163,2.893-6.959,1.693-11.816C95.755,40.806,92.145,37.941,88.313,36.046z M93,67.333    c-1.819,4.547-4.263,5.854-8.177,7.592c-0.022-5.712-2.583-11.536-6.047-16.016c-1.12-0.756-1.711-0.425-1.774,0.991    c6.33,11.879,3.524,29.263-12.287,31.051c4.238-4.541,6.285-12.618,5.901-15.587c-0.207-1.602-1.465-1.604-2.651-0.292    C66.296,80.662,65.596,86.219,61,89.333c-5.797,3.927-16.02,4.129-22.395-2.573c11.461-5.725,19.846-15.753,23.332-28.062    c-0.183-1.118-0.721-1.288-1.613-0.508C52.608,74.126,39.737,86.574,22.37,79.805c0,0-0.003-0.002,0,0    c-3.973-2.755-5.698-6.598-5.898-11.331l29.935-16.46c0.821-1.113,0.531-1.682-0.869-1.707L14.534,64.885    c-15.165-9.953-0.076-24.16,11.286-27.432c0.02-0.001-0.125,0.002-0.056,0c7.226-0.927,12.549-0.006,13.071-0.081    s5.233-1.294,0.164-2.04c-5.744-0.845-20.753-0.935-26.87,4.044C8.994,21.009,30.542,14.193,44.373,20.891    c0.901,0.186,1.208-0.195,0.92-1.145c-3.631-4.08-8.286-5.949-13.766-6.337c5.554-6.233,14.085-8.108,21.474-3.069    c2.984,2.036,4.515,6.025,5.816,8.247c1.467,2.504,1.822-0.401,1.614-1.528c-0.472-2.557-1.367-3.76-2.994-5.789    c12.471-6.681,17.352,5.521,14.938,15.59c0.133,1.462,0.822,1.736,2.068,0.82l3.089-5.689c1.788,0.217,5.381,0.292,7.405,3.278    c2.5,3.688,1.25,10.812,1.938,11.75c0.697,0.951,6.062,3.943,7.125,8.312c0.91,3.742-2,11-2,11S95,62.333,93,67.333z"/><path d="M65.342,36.666c-7.527,15.054,4.453,15.639,16.084,0.948c2.059-2.802,1.821-5.246-0.714-7.333    C79.766,30.519,70.141,33.985,65.342,36.666z M81.112,36.624c-2.117-0.42-2.862-1.71-2.236-3.871    c1.145-2.038,2.059-1.875,2.742,0.49C82.044,35.108,81.467,36.468,81.112,36.624C80.765,36.778,81.467,36.468,81.112,36.624z"/></g></g><g display="none"><path display="inline" d="M92,43.929c0-2.854-1.899-5.596-4.754-5.596H61.891c2.051-1,3.797-2.192,4.984-3.518   c3.199-3.569,4.197-8.276,3.15-12.77c0.541,0.755,1.037,1.643,1.282,2.381c0.085,0.633,0.115,1.072,0.117,1.104   c0.071,1.064,0.935,1.916,2.001,1.956c0.026,0.001,0.054,0.008,0.08,0.008c1.032,0,1.915-0.756,2.062-1.786   c0.092-0.644,0.033-1.356-0.176-2.123c-0.557-3.811-1.971-8.559-5.542-9.887c-0.009-0.003-0.018-0.006-0.025-0.009   c0.035-0.582,0.663-1.771,1.871-3.544c0.677-0.993,1.05-1.541,1.009-2.371c-0.055-1.11-1.007-2.021-2.118-2.021   c-0.873,0-1.296,0-4.864,4.018c-1.585-1.765-4.249-4.008-7.84-4.497c-0.888-0.121-1.759,0.342-2.154,1.15   c-0.395,0.808-0.228,1.777,0.415,2.406c0.402,0.393,0.866,0.867,1.342,1.368c-0.9-0.164-1.815-0.252-2.738-0.252   c-4.097,0-7.974,1.703-10.634,4.671c-3.618,4.033-8.548,12.56-8.177,19.345c0.098,1.776,0.558,3.37,1.355,4.37H15.281   c-2.855,0-5.281,2.742-5.281,5.596v12.308c0,0.411,0.096,1.096,0.104,1.096H10v23h0.098c-0.002,0-0.098,0.208-0.098,0.429V93.07   c0,2.854,2.426,5.264,5.281,5.264h71.965c2.854,0,4.754-2.41,4.754-5.264V43.929z M41.47,37.101   c-0.839-0.751-1.287-1.75-1.37-3.263c-0.289-5.292,3.947-12.954,7.117-16.488c1.37-1.528,3.146-2.526,5.138-2.983   C51.868,15.012,52,17.333,52,17.333s2,1,11.163,2.374c-0.159,0.713-2.551,4.37-1.956,5.245c0.594,0.875,4.04-0.064,4.972-0.718   c0.357,2.863-0.415,5.575-2.409,7.8c-2.623,2.927-6.77,6.3-16.478,6.3h-1.271C43.991,38.333,42.424,37.958,41.47,37.101z    M14,43.929c0-0.552,0.729-0.596,1.281-0.596h71.965c0.552,0,0.754,0.044,0.754,0.596v13.404H14C13.993,57.333,14,43.929,14,43.929   z M14,61.333h74v15H14V61.333z M88,80.762V93.07c0,0.552-0.202,1.264-0.754,1.264H15.281c-0.552,0-1.281-0.712-1.281-1.264   c0,0-0.003-12.736,0-12.736h74c0,0,0-0.035,0,0.05V80.762z"/></g><text x="0" y="115" fill="#000000" font-size="5px" font-weight="bold" font-family="'Helvetica Neue', Helvetica, Arial-Unicode, Arial, Sans-serif">Created by Irit Barzily</text><text x="0" y="120" fill="#000000" font-size="5px" font-weight="bold" font-family="'Helvetica Neue', Helvetica, Arial-Unicode, Arial, Sans-serif">from the Noun Project</text></svg>