<svg xmlns="http://www.w3.org/2000/svg" xmlns:xlink="http://www.w3.org/1999/xlink" version="1.1" x="0px" y="0px" viewBox="0 0 100 125" enable-background="new 0 0 100 100" xml:space="preserve"><path d="M73.56,73.419c0-5.073-1.603-9.905-4.639-13.997c-0.068-0.153-0.166-0.291-0.285-0.406  c-1.222-1.643-1.865-3.566-1.865-5.575l-0.009-1.169c-0.032-4.14-0.132-16.738,0.009-24.218c0-6.94-5.629-12.595-12.613-12.776  V8.948c0-0.715-0.58-1.295-1.296-1.295h-7.673c-0.411,0-0.797,0.194-1.041,0.524c-0.244,0.33-0.318,0.756-0.198,1.149l1.825,5.996  c-6.81,0.613-12.545,6.297-12.545,12.756c0.139,7.457,0.041,20.055,0.008,24.194l-0.008,1.169c0,2.067-0.682,4.045-1.973,5.719  c-0.044,0.058-0.083,0.118-0.116,0.182c-3.075,4.109-4.699,8.973-4.699,14.078c0,11.85,8.807,18.926,23.559,18.929  c0.838,0,1.651-0.03,2.45-0.075c0.134,0.045,0.271,0.075,0.412,0.075c0.197,0,0.39-0.063,0.573-0.154  C66.1,91.156,73.56,84.313,73.56,73.419z M51.565,10.244v5.017h-3.102l-1.527-5.017H51.565z M56.083,89.249  c1.752-2.637,3.762-7.214,3.47-14.189c-0.03-0.716-0.642-1.24-1.35-1.24c-0.715,0.03-1.27,0.635-1.24,1.35  c0.373,8.878-3.288,13.284-4.517,14.506c-0.899,0.059-1.729,0.081-2.446,0.081l-0.001,1.296v-1.296  c-6.304-0.001-20.967-1.595-20.967-16.337c0-4.606,1.487-8.992,4.301-12.684c0.042-0.056,0.08-0.114,0.112-0.175  c1.554-2.093,2.375-4.55,2.375-7.12l0.008-1.148c0.033-4.148,0.131-16.772-0.008-24.239c0-3.41,2.055-6.556,5.055-8.428  c-0.544,1.581-0.764,3.682-0.764,6.477c0,0.801,0.014,1.66,0.028,2.561c0.012,0.742,0.024,1.513,0.03,2.303  c0.004,0.712,0.583,1.287,1.295,1.287c0.003,0,0.006,0,0.009,0c0.715-0.005,1.292-0.588,1.287-1.304  c-0.005-0.799-0.018-1.578-0.03-2.327c-0.014-0.886-0.028-1.731-0.028-2.52c0-7.422,1.653-7.791,4.395-8.251H47.5  c0.001,0,0.002,0,0.003,0s0.002,0,0.003,0h6.309c5.715,0,10.363,4.577,10.364,10.178c-0.141,7.491-0.042,20.115-0.009,24.263  l0.008,1.148c0,2.569,0.82,5.025,2.374,7.118c0.033,0.062,0.071,0.121,0.114,0.177c2.813,3.69,4.301,8.076,4.301,12.684  C70.968,84.396,62.838,88.082,56.083,89.249z"/><path d="M41.464,38.927c-0.001,0-0.001,0-0.002,0c-0.715,0.001-1.294,0.583-1.293,1.298c0.004,2.082,0.007,11.87,0,13.892  c-0.002,0.715,0.576,1.297,1.291,1.3c0.001,0,0.003,0,0.004,0c0.713,0,1.293-0.577,1.295-1.292c0.007-2.023,0.004-11.821,0-13.904  C42.758,39.505,42.178,38.927,41.464,38.927z"/><path d="M54.478,20.873c-0.529,0.464-0.58,1.277-0.129,1.817c0.03,0.036,2.983,3.728,2.574,17.494  c-0.021,0.715,0.541,1.313,1.257,1.333c0.013,0,0.025,0,0.039,0c0.697,0,1.273-0.555,1.294-1.257  c0.442-14.868-2.859-18.894-3.237-19.304C55.798,20.438,55.004,20.41,54.478,20.873z"/><path d="M50,50.798c-0.715,0-1.295,0.58-1.295,1.296v19.835c0,0.716,0.58,1.296,1.295,1.296c0.716,0,1.296-0.58,1.296-1.296V52.094  C51.296,51.378,50.716,50.798,50,50.798z"/><text x="0" y="115" fill="#000000" font-size="5px" font-weight="bold" font-family="'Helvetica Neue', Helvetica, Arial-Unicode, Arial, Sans-serif">Created by Gregory Sujkowski</text><text x="0" y="120" fill="#000000" font-size="5px" font-weight="bold" font-family="'Helvetica Neue', Helvetica, Arial-Unicode, Arial, Sans-serif">from the Noun Project</text></svg>